
<svg xmlns="http://www.w3.org/2000/svg"
 width="227.000000pt" height="45.000000pt" viewBox="0 0 227.000000 45.000000"
 >

<g transform="translate(0.000000,45.000000) scale(0.100000,-0.100000)"
fill="#000000" stroke="none">
<path d="M51 417 c-44 -22 -42 -44 10 -197 27 -80 56 -155 65 -168 24 -36 60
-44 174 -40 109 5 148 17 184 57 26 29 32 100 11 144 -13 28 -14 43 -6 73 23
82 -43 144 -151 144 -55 0 -59 -2 -102 -46 l-44 -47 -44 47 c-47 49 -59 53
-97 33z m59 -56 c0 -4 18 -28 41 -52 l41 -44 54 60 c41 46 56 57 65 48 10 -10
4 -38 -26 -125 -65 -191 -76 -208 -113 -175 -23 21 -108 268 -99 290 6 16 37
14 37 -2z m304 -2 c29 -23 32 -46 14 -96 -10 -28 -9 -38 5 -62 23 -39 21 -73
-4 -105 -18 -23 -27 -26 -88 -26 l-68 0 51 155 c28 85 54 154 57 155 4 0 18
-9 33 -21z"/>
<path d="M2116 378 c7 -10 51 -10 58 0 2 4 -10 8 -29 8 -19 0 -31 -4 -29 -8z"/>
<path d="M670 320 c-6 -21 -15 -42 -20 -45 -16 -10 -12 -45 5 -45 8 0 15 7 15
15 0 10 10 15 30 15 20 0 30 -5 30 -15 0 -8 5 -15 11 -15 8 0 10 13 5 38 -3
20 -6 49 -6 65 0 23 -4 27 -30 27 -26 0 -31 -5 -40 -40z m50 -10 c0 -23 -4
-30 -20 -30 -23 0 -23 0 -10 34 13 35 30 33 30 -4z"/>
<path d="M770 341 c-16 -31 -12 -59 12 -75 12 -9 26 -16 30 -16 15 0 48 40 48
59 0 46 -69 70 -90 32z m58 -33 c-4 -37 -22 -47 -37 -19 -14 26 -4 51 21 51
16 0 19 -6 16 -32z"/>
<path d="M884 335 c-27 -41 9 -95 53 -78 16 6 15 8 -7 13 -19 4 -26 13 -28 38
-3 29 0 32 22 32 14 0 26 5 26 10 0 21 -50 10 -66 -15z"/>
<path d="M970 310 c0 -27 5 -50 10 -50 6 0 10 10 10 23 l0 22 20 -25 c22 -29
37 -22 18 9 -11 17 -11 25 0 42 19 31 4 38 -18 9 l-20 -25 0 23 c0 12 -4 22
-10 22 -5 0 -10 -22 -10 -50z"/>
<path d="M1068 310 c-14 -42 -14 -50 -2 -50 8 0 14 5 14 10 0 14 38 12 43 -2
2 -7 8 -10 12 -6 11 10 -20 93 -36 96 -10 2 -20 -14 -31 -48z m42 -1 c0 -5 -4
-9 -10 -9 -5 0 -10 7 -10 16 0 8 5 12 10 9 6 -3 10 -10 10 -16z"/>
<path d="M1206 344 c-22 -21 -20 -50 4 -74 24 -24 29 -24 58 -4 24 16 28 44
12 75 -13 23 -53 25 -74 3z m58 -20 c8 -20 -12 -56 -27 -51 -7 2 -13 18 -15
35 -3 26 0 32 16 32 11 0 23 -7 26 -16z"/>
<path d="M1310 309 l0 -50 33 3 c27 2 32 7 32 28 0 18 -6 26 -22 28 -28 4 -31
22 -4 22 11 0 23 5 26 10 4 6 -8 10 -29 10 l-36 0 0 -51z m50 -19 c0 -5 -7
-10 -15 -10 -8 0 -15 5 -15 10 0 6 7 10 15 10 8 0 15 -4 15 -10z"/>
<path d="M1390 350 c0 -5 5 -10 10 -10 6 0 10 -18 10 -41 0 -39 1 -40 33 -37
25 2 33 8 35 26 3 17 -2 25 -17 29 -12 3 -21 14 -21 24 0 14 -7 19 -25 19 -14
0 -25 -4 -25 -10z m70 -60 c0 -5 -4 -10 -10 -10 -5 0 -10 5 -10 10 0 6 5 10
10 10 6 0 10 -4 10 -10z"/>
<path d="M1505 349 c-4 -5 -4 -22 -1 -36 4 -14 2 -31 -5 -39 -9 -11 -9 -14 1
-14 6 0 20 10 31 23 l18 22 1 -22 c0 -13 5 -23 10 -23 6 0 10 23 10 50 0 49
-1 50 -29 50 -17 0 -33 -5 -36 -11z m45 -19 c0 -5 -7 -10 -15 -10 -8 0 -15 5
-15 10 0 6 7 10 15 10 8 0 15 -4 15 -10z"/>
<path d="M1600 310 l0 -51 33 3 c31 3 32 5 32 48 0 43 -1 45 -32 48 l-33 3 0
-51z m45 20 c-3 -5 -10 -10 -16 -10 -5 0 -9 5 -9 10 0 6 7 10 16 10 8 0 12 -4
9 -10z m5 -40 c0 -5 -7 -10 -15 -10 -8 0 -15 5 -15 10 0 6 7 10 15 10 8 0 15
-4 15 -10z"/>
<path d="M1706 344 c-3 -9 -6 -26 -6 -39 0 -13 -5 -27 -10 -30 -6 -4 -8 -11
-4 -16 8 -14 34 9 34 31 0 25 10 50 21 50 5 0 9 -18 9 -40 0 -22 5 -40 10 -40
6 0 10 23 10 50 0 48 -1 50 -29 50 -17 0 -31 -6 -35 -16z"/>
<path d="M1800 310 c0 -49 1 -50 31 -50 17 0 28 4 24 10 -3 6 -13 10 -21 10
-22 0 -17 17 9 25 l22 8 -22 4 c-28 5 -30 23 -3 23 11 0 20 5 20 10 0 6 -13
10 -30 10 -29 0 -30 -1 -30 -50z"/>
<path d="M1870 310 c0 -38 4 -50 15 -50 8 0 15 9 15 20 0 13 7 20 20 20 13 0
20 -7 20 -20 0 -11 5 -20 10 -20 6 0 10 23 10 50 0 28 -4 50 -10 50 -5 0 -10
-9 -10 -20 0 -13 -7 -20 -20 -20 -13 0 -20 7 -20 20 0 11 -7 20 -15 20 -11 0
-15 -12 -15 -50z"/>
<path d="M1980 310 c0 -41 3 -50 18 -50 9 0 27 17 39 38 l22 37 1 -37 c0 -21
5 -38 10 -38 6 0 10 23 10 50 0 60 -18 66 -49 18 l-21 -33 0 33 c0 22 -5 32
-15 32 -11 0 -15 -12 -15 -50z"/>
<path d="M2100 310 c0 -60 18 -66 49 -17 l21 32 0 -32 c0 -18 5 -33 10 -33 6
0 10 23 10 50 0 61 -17 66 -48 13 l-22 -38 0 38 c0 20 -4 37 -10 37 -5 0 -10
-22 -10 -50z"/>
<path d="M660 180 c-12 -8 -11 -10 7 -10 12 0 25 -4 28 -10 3 -5 -3 -10 -14
-10 -12 0 -21 -4 -21 -10 0 -5 9 -10 21 -10 11 0 17 -4 14 -10 -3 -5 -16 -10
-28 -10 -20 -1 -20 -2 -5 -11 12 -7 24 -6 38 1 27 14 27 65 1 80 -24 12 -22
12 -41 0z"/>
<path d="M756 178 c-2 -7 -6 -22 -9 -33 -3 -11 -8 -28 -12 -38 -5 -13 -3 -16
8 -11 8 3 18 21 21 40 9 48 26 43 26 -8 0 -30 3 -39 11 -31 6 6 9 28 7 49 -2
32 -7 40 -26 42 -12 2 -24 -3 -26 -10z"/>
<path d="M830 140 c0 -47 2 -50 25 -50 14 0 25 5 25 10 0 6 -7 10 -15 10 -8 0
-15 5 -15 10 0 6 7 10 15 10 8 0 15 5 15 10 0 6 -7 10 -15 10 -8 0 -15 5 -15
10 0 6 7 10 15 10 8 0 15 5 15 10 0 6 -11 10 -25 10 -23 0 -25 -3 -25 -50z"/>
<path d="M900 140 c0 -27 5 -50 10 -50 6 0 10 10 10 22 l0 21 25 -23 c28 -27
32 -21 10 14 -14 21 -14 24 0 36 8 7 15 17 15 23 0 6 -11 0 -25 -13 l-25 -23
0 21 c0 12 -4 22 -10 22 -5 0 -10 -22 -10 -50z"/>
<path d="M980 180 c0 -5 5 -10 10 -10 6 0 10 -15 10 -34 0 -19 5 -38 10 -41 6
-4 10 10 10 34 0 31 4 41 16 41 8 0 12 5 9 10 -3 6 -19 10 -36 10 -16 0 -29
-4 -29 -10z"/>
<path d="M1060 139 c0 -31 4 -48 10 -44 6 3 10 13 10 21 0 8 7 14 15 14 21 0
30 27 15 45 -7 8 -21 15 -31 15 -16 0 -19 -8 -19 -51z m40 22 c0 -6 -4 -13
-10 -16 -5 -3 -10 1 -10 9 0 9 5 16 10 16 6 0 10 -4 10 -9z"/>
<path d="M1162 183 c-18 -7 -33 -39 -26 -58 10 -25 41 -37 64 -25 27 14 27 65
1 80 -11 5 -21 10 -23 9 -2 0 -9 -3 -16 -6z m33 -43 c0 -16 -6 -26 -17 -28
-14 -3 -18 3 -18 28 0 25 4 31 18 28 11 -2 17 -12 17 -28z"/>
<path d="M1240 140 c0 -32 4 -49 10 -45 6 3 10 13 10 21 0 22 27 16 35 -8 8
-22 8 -22 12 4 2 16 2 40 0 55 -4 27 -4 27 -12 6 -8 -25 -35 -31 -35 -9 0 8
-4 18 -10 21 -6 4 -10 -13 -10 -45z"/>
<path d="M1338 184 c-12 -11 -10 -82 2 -89 6 -3 10 3 10 14 0 14 6 21 20 21
14 0 20 -7 20 -21 0 -11 5 -17 10 -14 6 3 10 24 10 45 0 21 -4 42 -10 45 -5 3
-10 -3 -10 -14 0 -29 -37 -28 -42 0 -2 11 -6 17 -10 13z"/>
<path d="M1430 141 c0 -54 10 -63 45 -37 21 15 14 46 -10 46 -8 0 -15 6 -15
14 0 8 -4 18 -10 21 -6 4 -10 -13 -10 -44z m40 -21 c0 -5 -4 -10 -10 -10 -5 0
-10 5 -10 10 0 6 5 10 10 10 6 0 10 -4 10 -10z"/>
<path d="M1500 140 c0 -27 5 -50 10 -50 6 0 10 23 10 50 0 28 -4 50 -10 50 -5
0 -10 -22 -10 -50z"/>
<path d="M1540 186 c0 -4 5 -17 11 -28 8 -14 8 -23 0 -31 -6 -6 -11 -18 -11
-26 0 -11 3 -11 19 3 16 15 19 15 31 1 18 -22 23 -12 9 18 -9 21 -9 30 1 42 7
8 11 18 8 20 -3 3 -11 -1 -18 -10 -12 -14 -15 -14 -31 1 -11 10 -19 14 -19 10z"/>
<path d="M1670 170 c-11 -11 -20 -24 -20 -30 0 -13 37 -50 49 -50 6 0 13 5 16
10 3 6 -3 10 -14 10 -17 0 -21 6 -21 30 0 24 4 30 21 30 11 0 17 5 14 10 -9
15 -23 12 -45 -10z"/>
<path d="M1740 141 c0 -28 4 -51 9 -51 5 0 18 15 30 33 l21 32 0 -27 c0 -16 5
-28 10 -28 13 0 13 77 0 85 -5 3 -19 -9 -30 -27 l-20 -33 0 27 c0 15 -4 30
-10 33 -6 4 -10 -13 -10 -44z"/>
<path d="M1840 140 c0 -27 5 -50 10 -50 6 0 10 18 10 40 0 34 3 40 21 40 11 0
17 5 14 10 -3 6 -17 10 -31 10 -22 0 -24 -4 -24 -50z"/>
<path d="M1925 157 c-8 -20 -15 -44 -15 -54 1 -17 1 -17 14 0 16 21 35 22 42
2 4 -8 10 -12 15 -9 9 5 -14 71 -31 88 -6 6 -15 -5 -25 -27z m29 -12 c3 -8 1
-15 -4 -15 -6 0 -10 7 -10 15 0 8 2 15 4 15 2 0 6 -7 10 -15z"/>
<path d="M2000 139 c0 -31 4 -48 10 -44 6 3 10 13 10 21 0 8 7 14 15 14 21 0
30 27 15 45 -7 8 -21 15 -31 15 -16 0 -19 -8 -19 -51z m40 22 c0 -6 -4 -13
-10 -16 -5 -3 -10 1 -10 9 0 9 5 16 10 16 6 0 10 -4 10 -9z"/>
<path d="M2080 140 c0 -47 2 -50 25 -50 14 0 25 5 25 10 0 6 -7 10 -15 10 -20
0 -19 10 3 26 16 13 16 13 0 14 -22 0 -24 20 -3 20 8 0 15 5 15 10 0 6 -11 10
-25 10 -23 0 -25 -3 -25 -50z"/>
<path d="M2140 180 c0 -5 5 -10 10 -10 6 0 10 -15 10 -34 0 -19 5 -38 10 -41
6 -4 10 10 10 34 0 31 4 41 16 41 8 0 12 5 9 10 -3 6 -19 10 -36 10 -16 0 -29
-4 -29 -10z"/>
</g>
</svg>
